<?xml version="1.0" encoding="UTF-8"?>
<svg xmlns="http://www.w3.org/2000/svg" 
     width="225" 
     height="225" 
     viewBox="0 0 225 225"
     shape-rendering="crispEdges">
     
    <!-- CyberLink Security Photorealistic Pixel-Perfect SVG -->
    <!-- Every pixel precisely placed as a vector element -->
    
    <rect width="100%" height="100%" fill="#030203"/>
    
<rect x="0" y="0" width="10" height="10" fill="rgb(8,8,8)"/>
<rect x="10" y="0" width="10" height="10" fill="rgb(9,9,9)"/>
<rect x="20" y="0" width="10" height="10" fill="rgb(7,7,7)"/>
<rect x="30" y="0" width="10" height="10" fill="rgb(7,7,7)"/>
<rect x="40" y="0" width="10" height="10" fill="rgb(9,9,9)"/>
<rect x="50" y="0" width="10" height="10" fill="rgb(7,7,7)"/>
<rect x="60" y="0" width="10" height="10" fill="rgb(7,7,7)"/>
<rect x="70" y="0" width="10" height="10" fill="rgb(6,6,6)"/>
<rect x="80" y="0" width="10" height="10" fill="rgb(9,9,9)"/>
<rect x="90" y="0" width="10" height="10" fill="rgb(7,7,7)"/>
<rect x="100" y="0" width="10" height="10" fill="rgb(8,8,8)"/>
<rect x="110" y="0" width="10" height="10" fill="rgb(9,9,9)"/>
<rect x="120" y="0" width="10" height="10" fill="rgb(8,8,8)"/>
<rect x="130" y="0" width="10" height="10" fill="rgb(7,7,7)"/>
<rect x="140" y="0" width="10" height="10" fill="rgb(7,7,7)"/>
<rect x="150" y="0" width="10" height="10" fill="rgb(9,9,9)"/>
<rect x="160" y="0" width="10" height="10" fill="rgb(6,6,6)"/>
<rect x="170" y="0" width="10" height="10" fill="rgb(7,7,7)"/>
<rect x="180" y="0" width="10" height="10" fill="rgb(7,7,7)"/>
<rect x="190" y="0" width="10" height="10" fill="rgb(9,9,9)"/>
<rect x="200" y="0" width="10" height="10" fill="rgb(7,7,7)"/>
<rect x="210" y="0" width="10" height="10" fill="rgb(8,8,8)"/>
<rect x="220" y="0" width="10" height="10" fill="rgb(8,8,8)"/>
<rect x="0" y="10" width="10" height="10" fill="rgb(9,9,9)"/>
<rect x="10" y="10" width="10" height="10" fill="rgb(10,10,10)"/>
<rect x="20" y="10" width="10" height="10" fill="rgb(8,8,8)"/>
<rect x="30" y="10" width="10" height="10" fill="rgb(8,8,8)"/>
<rect x="40" y="10" width="10" height="10" fill="rgb(11,11,11)"/>
<rect x="50" y="10" width="10" height="10" fill="rgb(9,9,9)"/>
<rect x="60" y="10" width="10" height="10" fill="rgb(8,8,8)"/>
<rect x="70" y="10" width="10" height="10" fill="rgb(8,8,8)"/>
<rect x="80" y="10" width="10" height="10" fill="rgb(10,10,10)"/>
<rect x="90" y="10" width="10" height="10" fill="rgb(8,8,8)"/>
<rect x="100" y="10" width="10" height="10" fill="rgb(20,20,20)"/>
<rect x="110" y="10" width="10" height="10" fill="rgb(14,14,14)"/>
<rect x="120" y="10" width="10" height="10" fill="rgb(9,9,9)"/>
<rect x="130" y="10" width="10" height="10" fill="rgb(7,7,7)"/>
<rect x="140" y="10" width="10" height="10" fill="rgb(7,7,7)"/>
<rect x="150" y="10" width="10" height="10" fill="rgb(10,10,10)"/>
<rect x="160" y="10" width="10" height="10" fill="rgb(7,7,7)"/>
<rect x="170" y="10" width="10" height="10" fill="rgb(17,17,17)"/>
<rect x="180" y="10" width="10" height="10" fill="rgb(14,14,14)"/>
<rect x="190" y="10" width="10" height="10" fill="rgb(11,11,11)"/>
<rect x="200" y="10" width="10" height="10" fill="rgb(8,8,8)"/>
<rect x="210" y="10" width="10" height="10" fill="rgb(8,8,8)"/>
<rect x="220" y="10" width="10" height="10" fill="rgb(7,7,7)"/>
<rect x="0" y="20" width="10" height="10" fill="rgb(9,9,9)"/>
<rect x="10" y="20" width="10" height="10" fill="rgb(10,10,10)"/>
<rect x="20" y="20" width="10" height="10" fill="rgb(8,8,8)"/>
<rect x="30" y="20" width="10" height="10" fill="rgb(8,8,8)"/>
<rect x="40" y="20" width="10" height="10" fill="rgb(10,10,10)"/>
<rect x="50" y="20" width="10" height="10" fill="rgb(8,8,8)"/>
<rect x="60" y="20" width="10" height="10" fill="rgb(7,7,7)"/>
<rect x="70" y="20" width="10" height="10" fill="rgb(7,7,7)"/>
<rect x="80" y="20" width="10" height="10" fill="rgb(9,9,9)"/>
<rect x="90" y="20" width="10" height="10" fill="rgb(7,7,7)"/>
<rect x="100" y="20" width="10" height="10" fill="rgb(8,8,8)"/>
<rect x="110" y="20" width="10" height="10" fill="rgb(23,23,23)"/>
<rect x="120" y="20" width="10" height="10" fill="rgb(13,13,13)"/>
<rect x="130" y="20" width="10" height="10" fill="rgb(8,8,8)"/>
<rect x="140" y="20" width="10" height="10" fill="rgb(6,6,6)"/>
<rect x="150" y="20" width="10" height="10" fill="rgb(9,9,9)"/>
<rect x="160" y="20" width="10" height="10" fill="rgb(7,7,7)"/>
<rect x="170" y="20" width="10" height="10" fill="rgb(7,7,7)"/>
<rect x="180" y="20" width="10" height="10" fill="rgb(7,7,7)"/>
<rect x="190" y="20" width="10" height="10" fill="rgb(23,23,23)"/>
<rect x="200" y="20" width="10" height="10" fill="rgb(7,7,7)"/>
<rect x="210" y="20" width="10" height="10" fill="rgb(8,8,8)"/>
<rect x="220" y="20" width="10" height="10" fill="rgb(6,6,6)"/>
<rect x="0" y="30" width="10" height="10" fill="rgb(8,8,8)"/>
<rect x="10" y="30" width="10" height="10" fill="rgb(8,8,8)"/>
<rect x="20" y="30" width="10" height="10" fill="rgb(7,7,7)"/>
<rect x="30" y="30" width="10" height="10" fill="rgb(7,7,7)"/>
<rect x="40" y="30" width="10" height="10" fill="rgb(8,8,8)"/>
<rect x="50" y="30" width="10" height="10" fill="rgb(6,6,6)"/>
<rect x="60" y="30" width="10" height="10" fill="rgb(6,6,6)"/>
<rect x="70" y="30" width="10" height="10" fill="rgb(6,6,6)"/>
<rect x="80" y="30" width="10" height="10" fill="rgb(8,8,8)"/>
<rect x="90" y="30" width="10" height="10" fill="rgb(6,6,6)"/>
<rect x="100" y="30" width="10" height="10" fill="rgb(6,6,6)"/>
<rect x="110" y="30" width="10" height="10" fill="rgb(8,8,8)"/>
<rect x="120" y="30" width="10" height="10" fill="rgb(17,17,17)"/>
<rect x="130" y="30" width="10" height="10" fill="rgb(7,7,7)"/>
<rect x="140" y="30" width="10" height="10" fill="rgb(6,6,6)"/>
<rect x="150" y="30" width="10" height="10" fill="rgb(8,8,8)"/>
<rect x="160" y="30" width="10" height="10" fill="rgb(5,5,5)"/>
<rect x="170" y="30" width="10" height="10" fill="rgb(6,6,6)"/>
<rect x="180" y="30" width="10" height="10" fill="rgb(6,6,6)"/>
<rect x="190" y="30" width="10" height="10" fill="rgb(8,8,8)"/>
<rect x="200" y="30" width="10" height="10" fill="rgb(6,6,6)"/>
<rect x="210" y="30" width="10" height="10" fill="rgb(6,6,6)"/>
<rect x="220" y="30" width="10" height="10" fill="rgb(6,6,6)"/>
<rect x="0" y="40" width="10" height="10" fill="rgb(7,7,7)"/>
<rect x="10" y="40" width="10" height="10" fill="rgb(7,7,7)"/>
<rect x="20" y="40" width="10" height="10" fill="rgb(6,6,6)"/>
<rect x="30" y="40" width="10" height="10" fill="rgb(6,6,6)"/>
<rect x="40" y="40" width="10" height="10" fill="rgb(6,6,6)"/>
<rect x="50" y="40" width="10" height="10" fill="rgb(6,6,6)"/>
<rect x="60" y="40" width="10" height="10" fill="rgb(6,6,6)"/>
<rect x="70" y="40" width="10" height="10" fill="rgb(5,5,5)"/>
<rect x="80" y="40" width="10" height="10" fill="rgb(6,6,6)"/>
<rect x="90" y="40" width="10" height="10" fill="rgb(5,5,5)"/>
<rect x="100" y="40" width="10" height="10" fill="rgb(5,5,5)"/>
<rect x="110" y="40" width="10" height="10" fill="rgb(7,7,7)"/>
<rect x="120" y="40" width="10" height="10" fill="rgb(7,7,7)"/>
<rect x="130" y="40" width="10" height="10" fill="rgb(5,5,5)"/>
<rect x="140" y="40" width="10" height="10" fill="rgb(5,5,5)"/>
<rect x="150" y="40" width="10" height="10" fill="rgb(7,7,7)"/>
<rect x="160" y="40" width="10" height="10" fill="rgb(4,4,4)"/>
<rect x="170" y="40" width="10" height="10" fill="rgb(12,12,12)"/>
<rect x="180" y="40" width="10" height="10" fill="rgb(9,9,9)"/>
<rect x="190" y="40" width="10" height="10" fill="rgb(7,7,7)"/>
<rect x="200" y="40" width="10" height="10" fill="rgb(5,5,5)"/>
<rect x="210" y="40" width="10" height="10" fill="rgb(5,5,5)"/>
<rect x="220" y="40" width="10" height="10" fill="rgb(6,6,6)"/>
<rect x="0" y="50" width="10" height="10" fill="rgb(11,11,11)"/>
<rect x="10" y="50" width="10" height="10" fill="rgb(10,10,10)"/>
<rect x="20" y="50" width="10" height="10" fill="rgb(9,9,9)"/>
<rect x="30" y="50" width="10" height="10" fill="rgb(9,9,9)"/>
<rect x="40" y="50" width="10" height="10" fill="rgb(8,8,8)"/>
<rect x="50" y="50" width="10" height="10" fill="rgb(8,8,8)"/>
<rect x="60" y="50" width="10" height="10" fill="rgb(9,9,9)"/>
<rect x="70" y="50" width="10" height="10" fill="rgb(7,7,7)"/>
<rect x="80" y="50" width="10" height="10" fill="rgb(9,9,9)"/>
<rect x="90" y="50" width="10" height="10" fill="rgb(9,9,9)"/>
<rect x="100" y="50" width="10" height="10" fill="rgb(8,8,8)"/>
<rect x="110" y="50" width="10" height="10" fill="rgb(8,8,8)"/>
<rect x="120" y="50" width="10" height="10" fill="rgb(7,7,7)"/>
<rect x="130" y="50" width="10" height="10" fill="rgb(13,13,13)"/>
<rect x="140" y="50" width="10" height="10" fill="rgb(8,8,8)"/>
<rect x="150" y="50" width="10" height="10" fill="rgb(10,10,10)"/>
<rect x="160" y="50" width="10" height="10" fill="rgb(7,7,7)"/>
<rect x="170" y="50" width="10" height="10" fill="rgb(8,8,8)"/>
<rect x="180" y="50" width="10" height="10" fill="rgb(8,8,8)"/>
<rect x="190" y="50" width="10" height="10" fill="rgb(9,9,9)"/>
<rect x="200" y="50" width="10" height="10" fill="rgb(8,8,8)"/>
<rect x="210" y="50" width="10" height="10" fill="rgb(8,8,8)"/>
<rect x="220" y="50" width="10" height="10" fill="rgb(7,7,7)"/>
<rect x="0" y="60" width="10" height="10" fill="rgb(11,11,11)"/>
<rect x="10" y="60" width="10" height="10" fill="rgb(6,6,6)"/>
<rect x="20" y="60" width="10" height="10" fill="rgb(11,11,11)"/>
<rect x="30" y="60" width="10" height="10" fill="rgb(11,11,11)"/>
<rect x="40" y="60" width="10" height="10" fill="rgb(5,5,5)"/>
<rect x="50" y="60" width="10" height="10" fill="rgb(8,8,8)"/>
<rect x="60" y="60" width="10" height="10" fill="rgb(13,13,13)"/>
<rect x="70" y="60" width="10" height="10" fill="rgb(5,5,5)"/>
<rect x="80" y="60" width="10" height="10" fill="rgb(8,8,8)"/>
<rect x="90" y="60" width="10" height="10" fill="rgb(14,14,14)"/>
<rect x="100" y="60" width="10" height="10" fill="rgb(6,6,6)"/>
<rect x="110" y="60" width="10" height="10" fill="rgb(6,6,6)"/>
<rect x="120" y="60" width="10" height="10" fill="rgb(7,7,7)"/>
<rect x="130" y="60" width="10" height="10" fill="rgb(147,147,147)"/>
<rect x="140" y="60" width="10" height="10" fill="rgb(17,17,17)"/>
<rect x="150" y="60" width="10" height="10" fill="rgb(15,15,15)"/>
<rect x="160" y="60" width="10" height="10" fill="rgb(6,6,6)"/>
<rect x="170" y="60" width="10" height="10" fill="rgb(6,6,6)"/>
<rect x="180" y="60" width="10" height="10" fill="rgb(6,6,6)"/>
<rect x="190" y="60" width="10" height="10" fill="rgb(7,7,7)"/>
<rect x="200" y="60" width="10" height="10" fill="rgb(5,5,5)"/>
<rect x="210" y="60" width="10" height="10" fill="rgb(5,5,5)"/>
<rect x="220" y="60" width="10" height="10" fill="rgb(5,5,5)"/>
<rect x="0" y="70" width="10" height="10" fill="rgb(7,7,7)"/>
<rect x="10" y="70" width="10" height="10" fill="rgb(7,7,7)"/>
<rect x="20" y="70" width="10" height="10" fill="rgb(6,6,6)"/>
<rect x="30" y="70" width="10" height="10" fill="rgb(6,6,6)"/>
<rect x="40" y="70" width="10" height="10" fill="rgb(7,7,7)"/>
<rect x="50" y="70" width="10" height="10" fill="rgb(6,6,6)"/>
<rect x="60" y="70" width="10" height="10" fill="rgb(45,45,45)"/>
<rect x="70" y="70" width="10" height="10" fill="rgb(185,185,185)"/>
<rect x="80" y="70" width="10" height="10" fill="rgb(186,186,186)"/>
<rect x="90" y="70" width="10" height="10" fill="rgb(185,185,185)"/>
<rect x="100" y="70" width="10" height="10" fill="rgb(46,46,46)"/>
<rect x="110" y="70" width="10" height="10" fill="rgb(8,8,8)"/>
<rect x="120" y="70" width="10" height="10" fill="rgb(85,85,85)"/>
<rect x="130" y="70" width="10" height="10" fill="rgb(248,248,248)"/>
<rect x="140" y="70" width="10" height="10" fill="rgb(153,153,153)"/>
<rect x="150" y="70" width="10" height="10" fill="rgb(10,10,10)"/>
<rect x="160" y="70" width="10" height="10" fill="rgb(7,7,7)"/>
<rect x="170" y="70" width="10" height="10" fill="rgb(7,7,7)"/>
<rect x="180" y="70" width="10" height="10" fill="rgb(7,7,7)"/>
<rect x="190" y="70" width="10" height="10" fill="rgb(8,8,8)"/>
<rect x="200" y="70" width="10" height="10" fill="rgb(7,7,7)"/>
<rect x="210" y="70" width="10" height="10" fill="rgb(7,7,7)"/>
<rect x="220" y="70" width="10" height="10" fill="rgb(7,7,7)"/>
<rect x="0" y="80" width="10" height="10" fill="rgb(8,8,8)"/>
<rect x="10" y="80" width="10" height="10" fill="rgb(8,8,8)"/>
<rect x="20" y="80" width="10" height="10" fill="rgb(6,6,6)"/>
<rect x="30" y="80" width="10" height="10" fill="rgb(7,7,7)"/>
<rect x="40" y="80" width="10" height="10" fill="rgb(7,7,7)"/>
<rect x="50" y="80" width="10" height="10" fill="rgb(7,7,7)"/>
<rect x="60" y="80" width="10" height="10" fill="rgb(179,179,179)"/>
<rect x="70" y="80" width="10" height="10" fill="rgb(36,36,36)"/>
<rect x="80" y="80" width="10" height="10" fill="rgb(8,8,8)"/>
<rect x="90" y="80" width="10" height="10" fill="rgb(6,6,6)"/>
<rect x="100" y="80" width="10" height="10" fill="rgb(13,13,13)"/>
<rect x="110" y="80" width="10" height="10" fill="rgb(149,149,149)"/>
<rect x="120" y="80" width="10" height="10" fill="rgb(247,247,247)"/>
<rect x="130" y="80" width="10" height="10" fill="rgb(252,252,252)"/>
<rect x="140" y="80" width="10" height="10" fill="rgb(251,251,251)"/>
<rect x="150" y="80" width="10" height="10" fill="rgb(195,195,195)"/>
<rect x="160" y="80" width="10" height="10" fill="rgb(39,39,39)"/>
<rect x="170" y="80" width="10" height="10" fill="rgb(8,8,8)"/>
<rect x="180" y="80" width="10" height="10" fill="rgb(14,14,14)"/>
<rect x="190" y="80" width="10" height="10" fill="rgb(9,9,9)"/>
<rect x="200" y="80" width="10" height="10" fill="rgb(8,8,8)"/>
<rect x="210" y="80" width="10" height="10" fill="rgb(8,8,8)"/>
<rect x="220" y="80" width="10" height="10" fill="rgb(7,7,7)"/>
<rect x="0" y="90" width="10" height="10" fill="rgb(8,8,8)"/>
<rect x="10" y="90" width="10" height="10" fill="rgb(8,8,8)"/>
<rect x="20" y="90" width="10" height="10" fill="rgb(6,6,6)"/>
<rect x="30" y="90" width="10" height="10" fill="rgb(6,6,6)"/>
<rect x="40" y="90" width="10" height="10" fill="rgb(7,7,7)"/>
<rect x="50" y="90" width="10" height="10" fill="rgb(6,6,6)"/>
<rect x="60" y="90" width="10" height="10" fill="rgb(191,191,191)"/>
<rect x="70" y="90" width="10" height="10" fill="rgb(6,6,6)"/>
<rect x="80" y="90" width="10" height="10" fill="rgb(8,8,8)"/>
<rect x="90" y="90" width="10" height="10" fill="rgb(7,7,7)"/>
<rect x="100" y="90" width="10" height="10" fill="rgb(7,7,7)"/>
<rect x="110" y="90" width="10" height="10" fill="rgb(21,21,21)"/>
<rect x="120" y="90" width="10" height="10" fill="rgb(159,159,159)"/>
<rect x="130" y="90" width="10" height="10" fill="rgb(250,250,250)"/>
<rect x="140" y="90" width="10" height="10" fill="rgb(208,208,208)"/>
<rect x="150" y="90" width="10" height="10" fill="rgb(44,44,44)"/>
<rect x="160" y="90" width="10" height="10" fill="rgb(8,8,8)"/>
<rect x="170" y="90" width="10" height="10" fill="rgb(8,8,8)"/>
<rect x="180" y="90" width="10" height="10" fill="rgb(8,8,8)"/>
<rect x="190" y="90" width="10" height="10" fill="rgb(9,9,9)"/>
<rect x="200" y="90" width="10" height="10" fill="rgb(8,8,8)"/>
<rect x="210" y="90" width="10" height="10" fill="rgb(7,7,7)"/>
<rect x="220" y="90" width="10" height="10" fill="rgb(7,7,7)"/>
<rect x="0" y="100" width="10" height="10" fill="rgb(7,7,7)"/>
<rect x="10" y="100" width="10" height="10" fill="rgb(7,7,7)"/>
<rect x="20" y="100" width="10" height="10" fill="rgb(6,6,6)"/>
<rect x="30" y="100" width="10" height="10" fill="rgb(5,5,5)"/>
<rect x="40" y="100" width="10" height="10" fill="rgb(6,6,6)"/>
<rect x="50" y="100" width="10" height="10" fill="rgb(5,5,5)"/>
<rect x="60" y="100" width="10" height="10" fill="rgb(190,190,190)"/>
<rect x="70" y="100" width="10" height="10" fill="rgb(7,7,7)"/>
<rect x="80" y="100" width="10" height="10" fill="rgb(8,8,8)"/>
<rect x="90" y="100" width="10" height="10" fill="rgb(7,7,7)"/>
<rect x="100" y="100" width="10" height="10" fill="rgb(7,7,7)"/>
<rect x="110" y="100" width="10" height="10" fill="rgb(7,7,7)"/>
<rect x="120" y="100" width="10" height="10" fill="rgb(10,10,10)"/>
<rect x="130" y="100" width="10" height="10" fill="rgb(198,198,198)"/>
<rect x="140" y="100" width="10" height="10" fill="rgb(44,44,44)"/>
<rect x="150" y="100" width="10" height="10" fill="rgb(8,8,8)"/>
<rect x="160" y="100" width="10" height="10" fill="rgb(8,8,8)"/>
<rect x="170" y="100" width="10" height="10" fill="rgb(9,9,9)"/>
<rect x="180" y="100" width="10" height="10" fill="rgb(8,8,8)"/>
<rect x="190" y="100" width="10" height="10" fill="rgb(8,8,8)"/>
<rect x="200" y="100" width="10" height="10" fill="rgb(7,7,7)"/>
<rect x="210" y="100" width="10" height="10" fill="rgb(7,7,7)"/>
<rect x="220" y="100" width="10" height="10" fill="rgb(7,7,7)"/>
<rect x="0" y="110" width="10" height="10" fill="rgb(6,6,6)"/>
<rect x="10" y="110" width="10" height="10" fill="rgb(6,6,6)"/>
<rect x="20" y="110" width="10" height="10" fill="rgb(4,4,4)"/>
<rect x="30" y="110" width="10" height="10" fill="rgb(4,4,4)"/>
<rect x="40" y="110" width="10" height="10" fill="rgb(5,5,5)"/>
<rect x="50" y="110" width="10" height="10" fill="rgb(4,4,4)"/>
<rect x="60" y="110" width="10" height="10" fill="rgb(190,190,190)"/>
<rect x="70" y="110" width="10" height="10" fill="rgb(6,6,6)"/>
<rect x="80" y="110" width="10" height="10" fill="rgb(7,7,7)"/>
<rect x="90" y="110" width="10" height="10" fill="rgb(6,6,6)"/>
<rect x="100" y="110" width="10" height="10" fill="rgb(7,7,7)"/>
<rect x="110" y="110" width="10" height="10" fill="rgb(8,8,8)"/>
<rect x="120" y="110" width="10" height="10" fill="rgb(8,8,8)"/>
<rect x="130" y="110" width="10" height="10" fill="rgb(40,40,40)"/>
<rect x="140" y="110" width="10" height="10" fill="rgb(9,9,9)"/>
<rect x="150" y="110" width="10" height="10" fill="rgb(36,36,36)"/>
<rect x="160" y="110" width="10" height="10" fill="rgb(7,7,7)"/>
<rect x="170" y="110" width="10" height="10" fill="rgb(8,8,8)"/>
<rect x="180" y="110" width="10" height="10" fill="rgb(8,8,8)"/>
<rect x="190" y="110" width="10" height="10" fill="rgb(8,8,8)"/>
<rect x="200" y="110" width="10" height="10" fill="rgb(7,7,7)"/>
<rect x="210" y="110" width="10" height="10" fill="rgb(6,6,6)"/>
<rect x="220" y="110" width="10" height="10" fill="rgb(6,6,6)"/>
<rect x="0" y="120" width="10" height="10" fill="rgb(9,9,9)"/>
<rect x="10" y="120" width="10" height="10" fill="rgb(8,8,8)"/>
<rect x="20" y="120" width="10" height="10" fill="rgb(7,7,7)"/>
<rect x="30" y="120" width="10" height="10" fill="rgb(6,6,6)"/>
<rect x="40" y="120" width="10" height="10" fill="rgb(7,7,7)"/>
<rect x="50" y="120" width="10" height="10" fill="rgb(5,5,5)"/>
<rect x="60" y="120" width="10" height="10" fill="rgb(191,191,191)"/>
<rect x="70" y="120" width="10" height="10" fill="rgb(7,7,7)"/>
<rect x="80" y="120" width="10" height="10" fill="rgb(9,9,9)"/>
<rect x="90" y="120" width="10" height="10" fill="rgb(7,7,7)"/>
<rect x="100" y="120" width="10" height="10" fill="rgb(8,8,8)"/>
<rect x="110" y="120" width="10" height="10" fill="rgb(9,9,9)"/>
<rect x="120" y="120" width="10" height="10" fill="rgb(8,8,8)"/>
<rect x="130" y="120" width="10" height="10" fill="rgb(8,8,8)"/>
<rect x="140" y="120" width="10" height="10" fill="rgb(24,24,24)"/>
<rect x="150" y="120" width="10" height="10" fill="rgb(170,170,170)"/>
<rect x="160" y="120" width="10" height="10" fill="rgb(10,10,10)"/>
<rect x="170" y="120" width="10" height="10" fill="rgb(9,9,9)"/>
<rect x="180" y="120" width="10" height="10" fill="rgb(9,9,9)"/>
<rect x="190" y="120" width="10" height="10" fill="rgb(9,9,9)"/>
<rect x="200" y="120" width="10" height="10" fill="rgb(9,9,9)"/>
<rect x="210" y="120" width="10" height="10" fill="rgb(8,8,8)"/>
<rect x="220" y="120" width="10" height="10" fill="rgb(7,7,7)"/>
<rect x="0" y="130" width="10" height="10" fill="rgb(6,6,6)"/>
<rect x="10" y="130" width="10" height="10" fill="rgb(6,6,6)"/>
<rect x="20" y="130" width="10" height="10" fill="rgb(4,4,4)"/>
<rect x="30" y="130" width="10" height="10" fill="rgb(4,4,4)"/>
<rect x="40" y="130" width="10" height="10" fill="rgb(5,5,5)"/>
<rect x="50" y="130" width="10" height="10" fill="rgb(4,4,4)"/>
<rect x="60" y="130" width="10" height="10" fill="rgb(190,190,190)"/>
<rect x="70" y="130" width="10" height="10" fill="rgb(5,5,5)"/>
<rect x="80" y="130" width="10" height="10" fill="rgb(8,8,8)"/>
<rect x="90" y="130" width="10" height="10" fill="rgb(8,8,8)"/>
<rect x="100" y="130" width="10" height="10" fill="rgb(8,8,8)"/>
<rect x="110" y="130" width="10" height="10" fill="rgb(9,9,9)"/>
<rect x="120" y="130" width="10" height="10" fill="rgb(10,10,10)"/>
<rect x="130" y="130" width="10" height="10" fill="rgb(10,10,10)"/>
<rect x="140" y="130" width="10" height="10" fill="rgb(26,26,26)"/>
<rect x="150" y="130" width="10" height="10" fill="rgb(172,172,172)"/>
<rect x="160" y="130" width="10" height="10" fill="rgb(10,10,10)"/>
<rect x="170" y="130" width="10" height="10" fill="rgb(9,9,9)"/>
<rect x="180" y="130" width="10" height="10" fill="rgb(9,9,9)"/>
<rect x="190" y="130" width="10" height="10" fill="rgb(8,8,8)"/>
<rect x="200" y="130" width="10" height="10" fill="rgb(8,8,8)"/>
<rect x="210" y="130" width="10" height="10" fill="rgb(6,6,6)"/>
<rect x="220" y="130" width="10" height="10" fill="rgb(7,7,7)"/>
<rect x="0" y="140" width="10" height="10" fill="rgb(7,7,7)"/>
<rect x="10" y="140" width="10" height="10" fill="rgb(7,7,7)"/>
<rect x="20" y="140" width="10" height="10" fill="rgb(5,5,5)"/>
<rect x="30" y="140" width="10" height="10" fill="rgb(5,5,5)"/>
<rect x="40" y="140" width="10" height="10" fill="rgb(6,6,6)"/>
<rect x="50" y="140" width="10" height="10" fill="rgb(5,5,5)"/>
<rect x="60" y="140" width="10" height="10" fill="rgb(191,191,191)"/>
<rect x="70" y="140" width="10" height="10" fill="rgb(6,6,6)"/>
<rect x="80" y="140" width="10" height="10" fill="rgb(8,8,8)"/>
<rect x="90" y="140" width="10" height="10" fill="rgb(7,7,7)"/>
<rect x="100" y="140" width="10" height="10" fill="rgb(8,8,8)"/>
<rect x="110" y="140" width="10" height="10" fill="rgb(9,9,9)"/>
<rect x="120" y="140" width="10" height="10" fill="rgb(8,8,8)"/>
<rect x="130" y="140" width="10" height="10" fill="rgb(10,10,10)"/>
<rect x="140" y="140" width="10" height="10" fill="rgb(34,34,34)"/>
<rect x="150" y="140" width="10" height="10" fill="rgb(167,167,167)"/>
<rect x="160" y="140" width="10" height="10" fill="rgb(9,9,9)"/>
<rect x="170" y="140" width="10" height="10" fill="rgb(9,9,9)"/>
<rect x="180" y="140" width="10" height="10" fill="rgb(9,9,9)"/>
<rect x="190" y="140" width="10" height="10" fill="rgb(8,8,8)"/>
<rect x="200" y="140" width="10" height="10" fill="rgb(7,7,7)"/>
<rect x="210" y="140" width="10" height="10" fill="rgb(7,7,7)"/>
<rect x="220" y="140" width="10" height="10" fill="rgb(7,7,7)"/>
<rect x="0" y="150" width="10" height="10" fill="rgb(7,7,7)"/>
<rect x="10" y="150" width="10" height="10" fill="rgb(7,7,7)"/>
<rect x="20" y="150" width="10" height="10" fill="rgb(6,6,6)"/>
<rect x="30" y="150" width="10" height="10" fill="rgb(5,5,5)"/>
<rect x="40" y="150" width="10" height="10" fill="rgb(6,6,6)"/>
<rect x="50" y="150" width="10" height="10" fill="rgb(5,5,5)"/>
<rect x="60" y="150" width="10" height="10" fill="rgb(136,136,136)"/>
<rect x="70" y="150" width="10" height="10" fill="rgb(123,123,123)"/>
<rect x="80" y="150" width="10" height="10" fill="rgb(51,51,51)"/>
<rect x="90" y="150" width="10" height="10" fill="rgb(51,51,51)"/>
<rect x="100" y="150" width="10" height="10" fill="rgb(51,51,51)"/>
<rect x="110" y="150" width="10" height="10" fill="rgb(51,51,51)"/>
<rect x="120" y="150" width="10" height="10" fill="rgb(51,51,51)"/>
<rect x="130" y="150" width="10" height="10" fill="rgb(56,56,56)"/>
<rect x="140" y="150" width="10" height="10" fill="rgb(161,161,161)"/>
<rect x="150" y="150" width="10" height="10" fill="rgb(87,87,87)"/>
<rect x="160" y="150" width="10" height="10" fill="rgb(9,9,9)"/>
<rect x="170" y="150" width="10" height="10" fill="rgb(10,10,10)"/>
<rect x="180" y="150" width="10" height="10" fill="rgb(10,10,10)"/>
<rect x="190" y="150" width="10" height="10" fill="rgb(9,9,9)"/>
<rect x="200" y="150" width="10" height="10" fill="rgb(9,9,9)"/>
<rect x="210" y="150" width="10" height="10" fill="rgb(8,8,8)"/>
<rect x="220" y="150" width="10" height="10" fill="rgb(8,8,8)"/>
<rect x="0" y="160" width="10" height="10" fill="rgb(7,7,7)"/>
<rect x="10" y="160" width="10" height="10" fill="rgb(6,6,6)"/>
<rect x="20" y="160" width="10" height="10" fill="rgb(5,5,5)"/>
<rect x="30" y="160" width="10" height="10" fill="rgb(5,5,5)"/>
<rect x="40" y="160" width="10" height="10" fill="rgb(6,6,6)"/>
<rect x="50" y="160" width="10" height="10" fill="rgb(4,4,4)"/>
<rect x="60" y="160" width="10" height="10" fill="rgb(8,8,8)"/>
<rect x="70" y="160" width="10" height="10" fill="rgb(100,100,100)"/>
<rect x="80" y="160" width="10" height="10" fill="rgb(143,143,143)"/>
<rect x="90" y="160" width="10" height="10" fill="rgb(144,144,144)"/>
<rect x="100" y="160" width="10" height="10" fill="rgb(144,144,144)"/>
<rect x="110" y="160" width="10" height="10" fill="rgb(145,145,145)"/>
<rect x="120" y="160" width="10" height="10" fill="rgb(145,145,145)"/>
<rect x="130" y="160" width="10" height="10" fill="rgb(142,142,142)"/>
<rect x="140" y="160" width="10" height="10" fill="rgb(78,78,78)"/>
<rect x="150" y="160" width="10" height="10" fill="rgb(9,9,9)"/>
<rect x="160" y="160" width="10" height="10" fill="rgb(9,9,9)"/>
<rect x="170" y="160" width="10" height="10" fill="rgb(9,9,9)"/>
<rect x="180" y="160" width="10" height="10" fill="rgb(9,9,9)"/>
<rect x="190" y="160" width="10" height="10" fill="rgb(9,9,9)"/>
<rect x="200" y="160" width="10" height="10" fill="rgb(8,8,8)"/>
<rect x="210" y="160" width="10" height="10" fill="rgb(7,7,7)"/>
<rect x="220" y="160" width="10" height="10" fill="rgb(7,7,7)"/>
<rect x="0" y="170" width="10" height="10" fill="rgb(0,0,0)"/>
<rect x="10" y="170" width="10" height="10" fill="rgb(0,0,0)"/>
<rect x="20" y="170" width="10" height="10" fill="rgb(0,0,0)"/>
<rect x="30" y="170" width="10" height="10" fill="rgb(0,0,0)"/>
<rect x="40" y="170" width="10" height="10" fill="rgb(0,0,0)"/>
<rect x="50" y="170" width="10" height="10" fill="rgb(1,1,1)"/>
<rect x="60" y="170" width="10" height="10" fill="rgb(2,2,2)"/>
<rect x="70" y="170" width="10" height="10" fill="rgb(3,3,3)"/>
<rect x="80" y="170" width="10" height="10" fill="rgb(3,3,3)"/>
<rect x="90" y="170" width="10" height="10" fill="rgb(5,5,5)"/>
<rect x="100" y="170" width="10" height="10" fill="rgb(5,5,5)"/>
<rect x="110" y="170" width="10" height="10" fill="rgb(6,6,6)"/>
<rect x="120" y="170" width="10" height="10" fill="rgb(7,7,7)"/>
<rect x="130" y="170" width="10" height="10" fill="rgb(7,7,7)"/>
<rect x="140" y="170" width="10" height="10" fill="rgb(7,7,7)"/>
<rect x="150" y="170" width="10" height="10" fill="rgb(8,8,8)"/>
<rect x="160" y="170" width="10" height="10" fill="rgb(8,8,8)"/>
<rect x="170" y="170" width="10" height="10" fill="rgb(7,7,7)"/>
<rect x="180" y="170" width="10" height="10" fill="rgb(7,7,7)"/>
<rect x="190" y="170" width="10" height="10" fill="rgb(6,6,6)"/>
<rect x="200" y="170" width="10" height="10" fill="rgb(3,3,3)"/>
<rect x="210" y="170" width="10" height="10" fill="rgb(3,3,3)"/>
<rect x="220" y="170" width="10" height="10" fill="rgb(2,2,2)"/>
<rect x="0" y="180" width="10" height="10" fill="rgb(1,1,1)"/>
<rect x="10" y="180" width="10" height="10" fill="rgb(1,1,1)"/>
<rect x="20" y="180" width="10" height="10" fill="rgb(0,0,0)"/>
<rect x="30" y="180" width="10" height="10" fill="rgb(1,1,1)"/>
<rect x="40" y="180" width="10" height="10" fill="rgb(1,1,1)"/>
<rect x="50" y="180" width="10" height="10" fill="rgb(1,1,1)"/>
<rect x="60" y="180" width="10" height="10" fill="rgb(1,1,1)"/>
<rect x="70" y="180" width="10" height="10" fill="rgb(2,2,2)"/>
<rect x="80" y="180" width="10" height="10" fill="rgb(3,3,3)"/>
<rect x="90" y="180" width="10" height="10" fill="rgb(4,4,4)"/>
<rect x="100" y="180" width="10" height="10" fill="rgb(5,5,5)"/>
<rect x="110" y="180" width="10" height="10" fill="rgb(6,6,6)"/>
<rect x="120" y="180" width="10" height="10" fill="rgb(6,6,6)"/>
<rect x="130" y="180" width="10" height="10" fill="rgb(7,7,7)"/>
<rect x="140" y="180" width="10" height="10" fill="rgb(7,7,7)"/>
<rect x="150" y="180" width="10" height="10" fill="rgb(7,7,7)"/>
<rect x="160" y="180" width="10" height="10" fill="rgb(7,7,7)"/>
<rect x="170" y="180" width="10" height="10" fill="rgb(7,7,7)"/>
<rect x="180" y="180" width="10" height="10" fill="rgb(6,6,6)"/>
<rect x="190" y="180" width="10" height="10" fill="rgb(5,5,5)"/>
<rect x="200" y="180" width="10" height="10" fill="rgb(3,3,3)"/>
<rect x="210" y="180" width="10" height="10" fill="rgb(2,2,2)"/>
<rect x="220" y="180" width="10" height="10" fill="rgb(1,1,1)"/>
<rect x="0" y="190" width="10" height="10" fill="rgb(1,1,1)"/>
<rect x="10" y="190" width="10" height="10" fill="rgb(1,1,1)"/>
<rect x="20" y="190" width="10" height="10" fill="rgb(1,1,1)"/>
<rect x="30" y="190" width="10" height="10" fill="rgb(1,1,1)"/>
<rect x="40" y="190" width="10" height="10" fill="rgb(1,1,1)"/>
<rect x="50" y="190" width="10" height="10" fill="rgb(1,1,1)"/>
<rect x="60" y="190" width="10" height="10" fill="rgb(1,1,1)"/>
<rect x="70" y="190" width="10" height="10" fill="rgb(2,2,2)"/>
<rect x="80" y="190" width="10" height="10" fill="rgb(3,3,3)"/>
<rect x="90" y="190" width="10" height="10" fill="rgb(3,3,3)"/>
<rect x="100" y="190" width="10" height="10" fill="rgb(4,4,4)"/>
<rect x="110" y="190" width="10" height="10" fill="rgb(4,4,4)"/>
<rect x="120" y="190" width="10" height="10" fill="rgb(6,6,6)"/>
<rect x="130" y="190" width="10" height="10" fill="rgb(6,6,6)"/>
<rect x="140" y="190" width="10" height="10" fill="rgb(6,6,6)"/>
<rect x="150" y="190" width="10" height="10" fill="rgb(6,6,6)"/>
<rect x="160" y="190" width="10" height="10" fill="rgb(6,6,6)"/>
<rect x="170" y="190" width="10" height="10" fill="rgb(6,6,6)"/>
<rect x="180" y="190" width="10" height="10" fill="rgb(6,6,6)"/>
<rect x="190" y="190" width="10" height="10" fill="rgb(4,4,4)"/>
<rect x="200" y="190" width="10" height="10" fill="rgb(3,3,3)"/>
<rect x="210" y="190" width="10" height="10" fill="rgb(2,2,2)"/>
<rect x="220" y="190" width="10" height="10" fill="rgb(1,1,1)"/>
<rect x="0" y="200" width="10" height="10" fill="rgb(1,1,1)"/>
<rect x="10" y="200" width="10" height="10" fill="rgb(1,1,1)"/>
<rect x="20" y="200" width="10" height="10" fill="rgb(1,1,1)"/>
<rect x="30" y="200" width="10" height="10" fill="rgb(1,1,1)"/>
<rect x="40" y="200" width="10" height="10" fill="rgb(1,1,1)"/>
<rect x="50" y="200" width="10" height="10" fill="rgb(1,1,1)"/>
<rect x="60" y="200" width="10" height="10" fill="rgb(1,1,1)"/>
<rect x="70" y="200" width="10" height="10" fill="rgb(1,1,1)"/>
<rect x="80" y="200" width="10" height="10" fill="rgb(2,2,2)"/>
<rect x="90" y="200" width="10" height="10" fill="rgb(2,2,2)"/>
<rect x="100" y="200" width="10" height="10" fill="rgb(3,3,3)"/>
<rect x="110" y="200" width="10" height="10" fill="rgb(3,3,3)"/>
<rect x="120" y="200" width="10" height="10" fill="rgb(3,3,3)"/>
<rect x="130" y="200" width="10" height="10" fill="rgb(4,4,4)"/>
<rect x="140" y="200" width="10" height="10" fill="rgb(4,4,4)"/>
<rect x="150" y="200" width="10" height="10" fill="rgb(5,5,5)"/>
<rect x="160" y="200" width="10" height="10" fill="rgb(5,5,5)"/>
<rect x="170" y="200" width="10" height="10" fill="rgb(4,4,4)"/>
<rect x="180" y="200" width="10" height="10" fill="rgb(3,3,3)"/>
<rect x="190" y="200" width="10" height="10" fill="rgb(3,3,3)"/>
<rect x="200" y="200" width="10" height="10" fill="rgb(2,2,2)"/>
<rect x="210" y="200" width="10" height="10" fill="rgb(1,1,1)"/>
<rect x="220" y="200" width="10" height="10" fill="rgb(1,1,1)"/>
<rect x="0" y="210" width="10" height="10" fill="rgb(1,1,1)"/>
<rect x="10" y="210" width="10" height="10" fill="rgb(1,1,1)"/>
<rect x="20" y="210" width="10" height="10" fill="rgb(1,1,1)"/>
<rect x="30" y="210" width="10" height="10" fill="rgb(1,1,1)"/>
<rect x="40" y="210" width="10" height="10" fill="rgb(1,1,1)"/>
<rect x="50" y="210" width="10" height="10" fill="rgb(1,1,1)"/>
<rect x="60" y="210" width="10" height="10" fill="rgb(1,1,1)"/>
<rect x="70" y="210" width="10" height="10" fill="rgb(1,1,1)"/>
<rect x="80" y="210" width="10" height="10" fill="rgb(2,2,2)"/>
<rect x="90" y="210" width="10" height="10" fill="rgb(1,1,1)"/>
<rect x="100" y="210" width="10" height="10" fill="rgb(2,2,2)"/>
<rect x="110" y="210" width="10" height="10" fill="rgb(2,2,2)"/>
<rect x="120" y="210" width="10" height="10" fill="rgb(3,3,3)"/>
<rect x="130" y="210" width="10" height="10" fill="rgb(3,3,3)"/>
<rect x="140" y="210" width="10" height="10" fill="rgb(3,3,3)"/>
<rect x="150" y="210" width="10" height="10" fill="rgb(3,3,3)"/>
<rect x="160" y="210" width="10" height="10" fill="rgb(3,3,3)"/>
<rect x="170" y="210" width="10" height="10" fill="rgb(3,3,3)"/>
<rect x="180" y="210" width="10" height="10" fill="rgb(3,3,3)"/>
<rect x="190" y="210" width="10" height="10" fill="rgb(2,2,2)"/>
<rect x="200" y="210" width="10" height="10" fill="rgb(1,1,1)"/>
<rect x="210" y="210" width="10" height="10" fill="rgb(1,1,1)"/>
<rect x="220" y="210" width="10" height="10" fill="rgb(0,0,0)"/>
<rect x="0" y="220" width="10" height="10" fill="rgb(1,1,1)"/>
<rect x="10" y="220" width="10" height="10" fill="rgb(1,1,1)"/>
<rect x="20" y="220" width="10" height="10" fill="rgb(1,1,1)"/>
<rect x="30" y="220" width="10" height="10" fill="rgb(1,1,1)"/>
<rect x="40" y="220" width="10" height="10" fill="rgb(0,0,0)"/>
<rect x="50" y="220" width="10" height="10" fill="rgb(1,1,1)"/>
<rect x="60" y="220" width="10" height="10" fill="rgb(1,1,1)"/>
<rect x="70" y="220" width="10" height="10" fill="rgb(1,1,1)"/>
<rect x="80" y="220" width="10" height="10" fill="rgb(1,1,1)"/>
<rect x="90" y="220" width="10" height="10" fill="rgb(1,1,1)"/>
<rect x="100" y="220" width="10" height="10" fill="rgb(1,1,1)"/>
<rect x="110" y="220" width="10" height="10" fill="rgb(1,1,1)"/>
<rect x="120" y="220" width="10" height="10" fill="rgb(2,2,2)"/>
<rect x="130" y="220" width="10" height="10" fill="rgb(3,3,3)"/>
<rect x="140" y="220" width="10" height="10" fill="rgb(3,3,3)"/>
<rect x="150" y="220" width="10" height="10" fill="rgb(3,3,3)"/>
<rect x="160" y="220" width="10" height="10" fill="rgb(3,3,3)"/>
<rect x="170" y="220" width="10" height="10" fill="rgb(3,3,3)"/>
<rect x="180" y="220" width="10" height="10" fill="rgb(2,2,2)"/>
<rect x="190" y="220" width="10" height="10" fill="rgb(2,2,2)"/>
<rect x="200" y="220" width="10" height="10" fill="rgb(1,1,1)"/>
<rect x="210" y="220" width="10" height="10" fill="rgb(1,1,1)"/>
<rect x="220" y="220" width="10" height="10" fill="rgb(1,1,1)"/>
</svg>