<?xml version="1.0" encoding="UTF-8"?>
<svg xmlns="http://www.w3.org/2000/svg" 
     width="225" 
     height="225" 
     viewBox="0 0 225 225"
     preserveAspectRatio="none"
     shape-rendering="crispEdges">
     
    <!-- CyberLink Security ULTIMATE Photorealistic SVG -->
    <!-- TRUE pixel-by-pixel vector recreation -->
    <!-- Resolution: 2.0% sampling -->
    
    <title>darkRedHacker - Photorealistic Vector</title>
    <desc>Every pixel precisely mapped to vector elements</desc>
    
    <!-- Black background -->
    <rect width="100%" height="100%" fill="#000000"/>
    
    <!-- Pixel grid -->
    <g id="pixelGrid">

        <rect x="0" y="0" width="50" height="50" fill="rgb(8,8,8)"/><rect x="50" y="0" width="50" height="50" fill="rgb(7,7,7)"/><rect x="100" y="0" width="50" height="50" fill="rgb(9,9,9)"/><rect x="150" y="0" width="50" height="50" fill="rgb(9,9,9)"/><rect x="200" y="0" width="50" height="50" fill="rgb(7,7,7)"/>
        <rect x="0" y="50" width="50" height="50" fill="rgb(8,8,8)"/><rect x="50" y="50" width="50" height="50" fill="rgb(46,46,46)"/><rect x="100" y="50" width="50" height="50" fill="rgb(93,93,93)"/><rect x="150" y="50" width="50" height="50" fill="rgb(19,19,19)"/><rect x="200" y="50" width="50" height="50" fill="rgb(7,7,7)"/>
        <rect x="0" y="100" width="50" height="50" fill="rgb(6,6,6)"/><rect x="50" y="100" width="50" height="50" fill="rgb(43,43,43)"/><rect x="100" y="100" width="50" height="50" fill="rgb(21,21,21)"/><rect x="150" y="100" width="50" height="50" fill="rgb(29,29,29)"/><rect x="200" y="100" width="50" height="50" fill="rgb(7,7,7)"/>
        <rect x="50" y="150" width="50" height="50" fill="rgb(32,32,32)"/><rect x="100" y="150" width="50" height="50" fill="rgb(44,44,44)"/><rect x="150" y="150" width="50" height="50" fill="rgb(10,10,10)"/>
    </g>
</svg>