<?xml version="1.0" encoding="UTF-8"?>
<svg xmlns="http://www.w3.org/2000/svg" 
   xmlns:xlink="http://www.w3.org/1999/xlink"
   width="225" 
   height="225" 
   viewBox="0 0 225 225"
   preserveAspectRatio="xMidYMid meet">
   
  <!-- CyberLink Security Advanced Vectorization -->
  <!-- Generated using hybrid adaptive techniques -->
  
  <metadata>
    <title>Advanced Vector Render of darkRedHacker</title>
    <description>Enterprise-grade vectorization with gradient meshes and Bezier curves</description>
    <creator>Tim - Senior Enterprise Developer</creator>
    <created>2025-01-11</created>
  </metadata>
    <defs>
      <radialGradient id="bgGradient" cx="50%" cy="50%" r="100%">
        <stop offset="0%" style="stop-color:rgb(1, 1, 1);stop-opacity:1" />
        <stop offset="50%" style="stop-color:rgb(11, 11, 11);stop-opacity:1" />
        <stop offset="100%" style="stop-color:rgb(86, 86, 86);stop-opacity:1" />
      </radialGradient>
      <filter id="blur" x="-50%" y="-50%" width="200%" height="200%">
        <feGaussianBlur in="SourceGraphic" stdDeviation="2" />
      </filter>
    </defs>
    <rect width="100%" height="100%" fill="url(#bgGradient)" />
    
<path d="M 0 0 Q 8 0 5.0 3.5 Q 2 7 1.0 6.0 Q 0 5 0.0 7.5 Q 0 10 5.0 9.0 Q 10 8 6.5 4.5 Q 3 1 9.5 0.5 Q 16 0 14.5 2.0 Q 13 4 15.0 5.5 Q 17 7 22.0 3.5 Q 27 0 29.5 0.0 Q 32 0 31.0 1.5 Q 30 3 31.5 4.5 Q 33 6 35.5 5.5 Q 38 5 39.0 2.5 Q 40 0 37.5 1.0 Q 35 2 40.5 6.5 Q 46 11 43.5 13.0 Q 41 15 40.5 11.0 Q 40 7 43.5 5.0 Q 47 3 48.5 6.5 Q 50 10 53.0 11.5 Q 56 13 55.5 19.5 Q 55 26 52.5 26.0 Q 50 26 50.5 19.5 Q 51 13 49.0 13.0 Q 47 13 47.5 19.5 Q 48 26 44.0 24.5 Q 40 23 41.5 22.0 Q 43 21 42.0 19.0 Q 41 17 40.5 21.5 Q 40 26 26.5 26.5 Q 13 27 15.0 28.5 Q 17 30 32.0 29.0 Q 47 28 48.5 30.0 Q 50 32 48.0 33.5 Q 46 35 47.5 36.5 Q 49 38 49.5 36.0 Q 50 34 53.0 34.0 Q 56 34 55.5 31.0 Q 55 28 52.5 28.5 Q 50 29 55.0 36.0 Q 60 43 58.5 44.0 Q 57 45 57.0 51.0 Q 57 57 56.0 50.0 Q 55 43 58.0 39.0 Q 61 35 59.5 34.5 Q 58 34 58.0 31.0 Q 58 28 61.5 29.0 Q 65 30 67.0 28.0 Q 69 26 72.5 26.5 Q 76 27 74.5 28.5 Q 73 30 69.0 27.5 Q 65 25 61.5 25.5 Q 58 26 58.0 23.0 Q 58 20 61.0 19.0 Q 64 18 61.0 18.0 Q 58 18 59.0 14.5 Q 60 11 57.0 7.5 Q 54 4 55.0 2.0 Q 56 0 53.0 0.0 Q 50 0 51.0 2.0 Q 52 4 49.5 7.0 Q 47 10 51.5 10.0 Q 56 10 56.0 8.5 Q 56 7 60.0 4.5 Q 64 2 61.0 1.0 Q 58 0 61.5 4.0 Q 65 8 66.0 4.0 Q 67 0 69.5 0.0 Q 72 0 71.0 2.0 Q 70 4 71.5 5.0 Q 73 6 73.5 3.0 Q 74 0 76.5 0.0 Q 79 0 78.0 1.5 Q 77 3 78.5 4.5 Q 80 6 81.5 4.5 Q 83 3 86.5 4.0 Q 90 5 92.5 2.5 Q 95 0 92.0 0.0 Q 89 0 92.0 3.0 Q 95 6 96.5 4.5 Q 98 3 101.0 4.5 Q 104 6 106.0 4.0 Q 108 2 110.0 5.0 Q 112 8 112.5 4.0 Q 113 0 115.5 0.0 Q 118 0 117.5 2.0 Q 117 4 120.0 8.5 Q 123 13 123.0 11.5 Q 123 10 125.5 9.0 Q 128 8 128.0 17.0 Q 128 26 131.5 25.0 Q 135 24 137.0 25.5 Q 139 27 136.0 31.0 Q 133 35 134.5 37.0 Q 136 39 135.5 43.5 Q 135 48 134.5 43.5 Q 134 39 136.0 37.0 Q 138 35 136.0 31.5 Q 134 28 131.0 28.5 Q 128 29 128.0 33.0 Q 128 37 122.5 36.5 Q 117 36 117.5 32.0 Q 118 28 115.5 28.0 Q 113 28 112.5 30.0 Q 112 32 108.0 34.5 Q 104 37 104.0 42.0 Q 104 47 103.5 41.5 Q 103 36 100.0 35.0 Q 97 34 97.0 31.0 Q 97 28 103.5 28.0 Q 110 28 112.5 31.0 Q 115 34 113.0 35.5 Q 111 37 112.5 40.0 Q 114 43 112.5 48.0 Q 111 53 112.0 51.5 Q 113 50 111.5 43.0 Q 110 36 107.0 34.0 Q 104 32 100.5 34.0 Q 97 36 96.0 39.0 Q 95 42 95.0 35.5 Q 95 29 91.5 27.0 Q 88 25 84.5 27.0 Q 81 29 79.0 28.5 Q 77 28 78.5 26.5 Q 80 25 83.5 27.0 Q 87 29 91.5 26.5 Q 96 24 99.0 25.0 Q 102 26 103.5 23.0 Q 105 20 107.5 20.5 Q 110 21 110.0 23.5 Q 110 26 107.5 26.0 Q 105 26 102.5 18.5 Q 100 11 98.0 13.0 Q 96 15 97.0 17.5 Q 98 20 96.0 20.0 Q 94 20 93.5 15.5 Q 93 11 94.5 9.5 Q 96 8 104.5 8.5 Q 113 9 113.0 13.5 Q 113 18 115.5 18.0 Q 118 18 119.5 15.5 Q 121 13 119.5 13.5 Q 118 14 117.5 12.5 Q 117 11 120.0 6.5 Q 123 2 123.0 3.5 Q 123 5 128.0 4.0 Q 133 3 134.0 4.5 Q 135 6 138.0 5.0 Q 141 4 141.5 2.0 Q 142 0 139.0 1.0 Q 136 2 140.0 4.0 Q 144 6 145.0 9.0 Q 146 12 144.5 14.0 Q 143 16 142.5 11.5 Q 142 7 145.0 4.5 Q 148 2 149.5 4.0 Q 151 6 149.5 9.0 Q 148 12 149.5 13.5 Q 151 15 151.5 20.5 Q 152 26 155.5 25.0 Q 159 24 161.5 25.5 Q 164 27 157.5 28.0 Q 151 29 150.0 28.0 Q 149 27 151.5 19.5 Q 154 12 153.0 6.0 Q 152 0 159.0 0.0 Q 166 0 163.5 1.0 Q 161 2 161.0 3.5 Q 161 5 164.0 5.5 Q 167 6 169.5 5.0 Q 172 4 170.0 2.0 Q 168 0 174.5 0.0 Q 181 0 180.0 1.5 Q 179 3 180.5 5.0 Q 182 7 184.0 5.5 Q 186 4 192.0 5.5 Q 198 7 198.5 3.5 Q 199 0 205.5 0.0 Q 212 0 210.5 2.5 Q 209 5 215.0 5.0 Q 221 5 222.5 7.5 Q 224 10 224.0 6.0 Q 224 2 222.0 2.0 Q 220 2 222.0 1.0 Q 224 0 219.5 0.0 Q 215 0 217.0 1.0 Q 219 2 216.5 2.0 Q 214 2 214.0 5.5 Q 214 9 212.5 10.0 Q 211 11 212.5 12.5 Q 214 14 215.5 12.5 Q 217 11 220.5 11.0 Q 224 11 224.0 35.5 Q 224 60 222.0 59.0 Q 220 58 222.0 59.5 Q 224 61 224.0 111.5 Q 224 162 222.5 162.0 Q 221 162 222.5 162.5 Q 224 163 224.0 193.5 Q 224 224 112.0 224.0 Q 0 224 0.0 196.5 Q 0 169 1.5 168.0 Q 3 167 1.5 166.0 Q 0 165 0.0 163.5 Q 0 162 1.5 162.0 Q 3 162 3.0 156.0 Q 3 150 1.5 150.0 Q 0 150 0.0 155.5 Q 0 161 1.5 162.5 Q 3 164 1.5 165.5 Q 0 167 5.5 167.0 Q 11 167 11.0 163.5 Q 11 160 9.5 160.0 Q 8 160 9.0 155.0 Q 10 150 9.0 151.5 Q 8 153 13.5 152.0 Q 19 151 18.0 153.0 Q 17 155 16.5 154.0 Q 16 153 16.5 160.5 Q 17 168 16.5 164.0 Q 16 160 21.0 159.5 Q 26 159 26.5 155.0 Q 27 151 25.5 151.0 Q 24 151 25.5 147.5 Q 27 144 21.5 144.5 Q 16 145 17.0 145.5 Q 18 146 17.0 141.0 Q 16 136 17.5 133.5 Q 19 131 18.0 125.5 Q 17 120 18.0 121.5 Q 19 123 17.5 128.5 Q 16 134 17.5 136.0 Q 19 138 24.0 133.5 Q 29 129 26.0 129.0 Q 23 129 25.0 125.5 Q 27 122 25.5 121.5 Q 24 121 29.5 121.0 Q 35 121 35.0 125.0 Q 35 129 33.5 129.0 Q 32 129 33.5 136.5 Q 35 144 33.5 144.5 Q 32 145 36.5 144.5 Q 41 144 42.0 148.0 Q 43 152 38.5 153.0 Q 34 154 41.5 149.5 Q 49 145 54.0 145.5 Q 59 146 59.5 114.5 Q 60 83 59.0 81.0 Q 58 79 56.5 80.0 Q 55 81 56.5 82.5 Q 58 84 65.0 77.0 Q 72 70 80.5 69.0 Q 89 68 88.5 62.5 Q 88 57 92.0 56.0 Q 96 55 97.0 56.5 Q 98 58 97.5 61.5 Q 97 65 93.5 66.5 Q 90 68 97.0 68.0 Q 104 68 104.5 70.0 Q 105 72 102.5 75.5 Q 100 79 90.0 79.0 Q 80 79 75.5 82.5 Q 71 86 70.5 116.5 Q 70 147 72.0 150.0 Q 74 153 77.5 154.5 Q 81 156 110.5 155.5 Q 140 155 143.5 150.5 Q 147 146 147.0 132.5 Q 147 119 145.5 117.5 Q 144 116 144.5 117.5 Q 145 119 150.0 116.5 Q 155 114 157.0 114.5 Q 159 115 158.5 132.0 Q 158 149 155.5 153.5 Q 153 158 148.0 162.0 Q 143 166 110.5 166.5 Q 78 167 70.5 162.0 Q 63 157 61.0 152.0 Q 59 147 58.0 151.5 Q 57 156 53.5 143.5 Q 50 131 45.5 129.5 Q 41 128 40.5 129.0 Q 40 130 41.5 125.5 Q 43 121 42.0 120.5 Q 41 120 40.5 121.0 Q 40 122 45.0 121.5 Q 50 121 49.0 116.5 Q 48 112 49.0 113.5 Q 50 115 50.5 110.0 Q 51 105 46.0 104.5 Q 41 104 41.0 105.5 Q 41 107 37.0 105.5 Q 33 104 33.0 105.5 Q 33 107 34.0 102.0 Q 35 97 31.0 97.5 Q 27 98 26.0 96.5 Q 25 95 25.0 101.0 Q 25 107 25.5 103.0 Q 26 99 22.5 98.5 Q 19 98 17.5 96.0 Q 16 94 16.5 91.5 Q 17 89 16.5 97.5 Q 16 106 17.5 106.0 Q 19 106 17.5 110.0 Q 16 114 17.5 114.0 Q 19 114 13.0 118.0 Q 7 122 9.5 121.5 Q 12 121 10.0 125.0 Q 8 129 9.5 129.0 Q 11 129 7.0 128.5 Q 3 128 1.5 117.5 Q 0 107 1.5 109.0 Q 3 111 3.0 114.0 Q 3 117 2.0 116.0 Q 1 115 0.5 117.0 Q 0 119 0.0 123.5 Q 0 128 1.5 129.0 Q 3 130 2.5 131.5 Q 2 133 1.0 131.5 Q 0 130 0.0 137.0 Q 0 144 1.5 139.0 Q 3 134 2.0 136.5 Q 1 139 2.5 141.5 Q 4 144 3.5 146.0 Q 3 148 1.5 147.0 Q 0 146 0.5 148.5 Q 1 151 5.5 146.5 Q 10 142 10.5 143.5 Q 11 145 10.0 145.5 Q 9 146 5.0 135.5 Q 1 125 2.0 116.0 Q 3 107 7.0 106.0 Q 11 105 10.0 106.0 Q 9 107 6.0 105.5 Q 3 104 2.5 102.0 Q 2 100 1.0 102.0 Q 0 104 0.0 93.5 Q 0 83 9.0 83.5 Q 18 84 19.0 83.0 Q 20 82 18.0 79.0 Q 16 76 18.0 75.0 Q 20 74 18.0 72.5 Q 16 71 15.0 72.5 Q 14 74 16.0 75.0 Q 18 76 16.5 78.5 Q 15 81 9.5 81.0 Q 4 81 2.0 79.0 Q 0 77 2.0 75.5 Q 4 74 2.0 72.5 Q 0 71 0.0 69.0 Q 0 67 1.0 68.5 Q 2 70 2.5 69.0 Q 3 68 3.0 62.5 Q 3 57 1.5 56.5 Q 0 56 0.0 54.0 Q 0 52 1.5 52.0 Q 3 52 3.0 45.5 Q 3 39 1.5 37.5 Q 0 36 17.0 37.0 Q 34 38 37.5 35.0 Q 41 32 42.5 33.5 Q 44 35 42.5 36.5 Q 41 38 37.0 35.0 Q 33 32 18.0 33.0 Q 3 34 1.5 33.0 Q 0 32 0.0 22.0 Q 0 12 1.5 12.5 Q 3 13 2.0 19.5 Q 1 26 4.0 26.0 Q 7 26 9.0 24.0 Q 11 22 11.0 19.0 Q 11 16 9.0 14.0 Q 7 12 5.5 12.0 Q 4 12 8.0 19.0 Q 12 26 11.0 28.0 Q 10 30 5.5 30.0 Q 1 30 2.0 30.5 Q 3 31 1.5 32.0 Q 0 33 0.0 41.5 Q 0 50 0.5 47.0 Q 1 44 6.0 43.0 Q 11 42 10.5 44.0 Q 10 46 9.0 45.0 Q 8 44 9.5 47.0 Q 11 50 10.0 52.0 Q 9 54 14.0 56.0 Q 19 58 13.0 58.0 Q 7 58 8.5 59.0 Q 10 60 9.0 60.5 Q 8 61 9.5 63.5 Q 11 66 9.5 66.0 Q 8 66 9.5 70.5 Q 11 75 5.5 73.5 Q 0 72 0.0 76.0 Q 0 80 1.5 81.0 Q 3 82 2.5 89.0 Q 2 96 6.5 96.0 Q 11 96 10.5 97.5 Q 10 99 8.0 97.5 Q 6 96 4.5 97.5 Q 3 99 2.0 92.5 Q 1 86 5.5 89.0 Q 10 92 9.5 90.0 Q 9 88 18.0 89.0 Q 27 90 25.5 82.5 Q 24 75 25.5 78.5 Q 27 82 29.5 82.0 Q 32 82 32.5 80.5 Q 33 79 34.5 80.0 Q 36 81 34.5 83.5 Q 33 86 32.5 84.5 Q 32 83 33.5 86.0 Q 35 89 34.0 90.0 Q 33 91 37.0 91.0 Q 41 91 42.0 86.5 Q 43 82 42.0 80.5 Q 41 79 40.5 81.0 Q 40 83 40.0 79.0 Q 40 75 42.0 74.5 Q 44 74 42.5 72.5 Q 41 71 39.5 72.5 Q 38 74 35.5 73.0 Q 33 72 32.5 73.5 Q 32 75 40.5 73.5 Q 49 72 51.5 73.0 Q 54 74 51.0 74.5 Q 48 75 48.5 87.0 Q 49 99 48.5 97.5 Q 48 96 45.0 97.5 Q 42 99 41.0 98.0 Q 40 97 47.5 86.0 Q 55 75 57.5 74.5 Q 60 74 58.5 72.5 Q 57 71 56.0 72.0 Q 55 73 56.0 70.5 Q 57 68 62.0 67.0 Q 67 66 66.0 61.5 Q 65 57 60.5 57.5 Q 56 58 56.0 62.5 Q 56 67 53.0 65.5 Q 50 64 49.5 65.5 Q 49 67 49.0 62.0 Q 49 57 48.5 58.5 Q 48 60 44.0 59.0 Q 40 58 40.5 62.0 Q 41 66 38.0 65.5 Q 35 65 34.0 60.5 Q 33 56 30.0 56.5 Q 27 57 25.5 55.5 Q 24 54 25.5 54.0 Q 27 54 26.5 51.5 Q 26 49 25.0 50.5 Q 24 52 20.5 50.0 Q 17 48 16.5 50.0 Q 16 52 16.5 47.0 Q 17 42 20.5 43.5 Q 24 45 25.0 43.0 Q 26 41 27.0 42.0 Q 28 43 26.5 44.5 Q 25 46 28.5 45.5 Q 32 45 32.5 43.0 Q 33 41 34.0 46.5 Q 35 52 33.0 51.5 Q 31 51 36.0 49.5 Q 41 48 41.0 50.5 Q 41 53 42.0 48.0 Q 43 43 41.5 43.0 Q 40 43 44.0 43.0 Q 48 43 49.0 41.0 Q 50 39 49.0 39.5 Q 48 40 49.5 45.5 Q 51 51 50.0 52.0 Q 49 53 48.5 51.5 Q 48 50 42.0 54.5 Q 36 59 34.5 63.0 Q 33 67 28.5 67.0 Q 24 67 24.5 62.0 Q 25 57 21.0 62.5 Q 17 68 16.5 66.0 Q 16 64 21.0 67.5 Q 26 71 26.5 73.0 Q 27 75 25.5 73.5 Q 24 72 23.5 73.0 Q 23 74 15.5 62.0 Q 8 50 4.0 52.0 Q 0 54 0.0 55.5 Q 0 57 1.5 41.0 Q 3 25 9.5 23.0 Q 16 21 17.0 19.0 Q 18 17 17.5 19.5 Q 17 22 20.0 20.5 Q 23 19 24.0 20.5 Q 25 22 30.0 21.5 Q 35 21 34.0 19.0 Q 33 17 28.5 17.5 Q 24 18 26.0 15.0 Q 28 12 26.5 10.5 Q 25 9 24.5 11.0 Q 24 13 20.0 11.5 Q 16 10 15.5 11.0 Q 15 12 17.0 12.5 Q 19 13 15.5 12.0 Q 12 11 11.5 12.5 Q 11 14 11.0 7.0 Q 11 0 17.5 0.0 Q 24 0 22.0 1.0 Q 20 2 22.5 4.0 Q 25 6 27.0 5.0 Q 29 4 27.5 2.0 Q 26 0 31.0 5.5 Q 36 11 35.0 12.5 Q 34 14 32.5 13.0 Q 31 12 32.5 9.5 Q 34 7 38.0 3.5 Q 42 0 45.0 0.0 Q 48 0 45.5 1.0 Q 43 2 52.0 6.0 Q 61 10 61.0 11.5 Q 61 13 66.5 13.0 Q 72 13 72.5 17.5 Q 73 22 72.0 20.5 Q 71 19 73.0 15.0 Q 75 11 69.0 10.5 Q 63 10 65.0 14.5 Q 67 19 66.0 21.0 Q 65 23 64.5 22.0 Q 64 21 64.5 26.5 Q 65 32 67.0 33.5 Q 69 35 67.5 35.5 Q 66 36 65.5 45.5 Q 65 55 63.5 49.0 Q 62 43 63.0 38.0 Q 64 33 72.5 33.0 Q 81 33 83.0 34.5 Q 85 36 86.5 34.0 Q 88 32 89.0 33.5 Q 90 35 89.0 36.0 Q 88 37 86.5 35.5 Q 85 34 82.5 37.0 Q 80 40 79.5 38.0 Q 79 36 75.5 36.0 Q 72 36 72.0 44.5 Q 72 53 71.5 47.5 Q 71 42 75.5 47.5 Q 80 53 81.5 51.5 Q 83 50 81.5 49.5 Q 80 49 83.0 50.0 Q 86 51 87.0 49.5 Q 88 48 88.0 51.5 Q 88 55 87.0 49.0 Q 86 43 90.0 43.0 Q 94 43 95.0 48.0 Q 96 53 96.5 48.0 Q 97 43 100.0 45.5 Q 103 48 104.5 53.5 Q 106 59 104.0 59.5 Q 102 60 103.5 54.0 Q 105 48 109.0 53.0 Q 113 58 112.5 59.5 Q 112 61 111.0 60.0 Q 110 59 111.0 63.0 Q 112 67 111.5 65.5 Q 111 64 106.5 64.5 Q 102 65 106.0 70.0 Q 110 75 111.5 75.0 Q 113 75 112.0 73.0 Q 111 71 113.5 73.0 Q 116 75 119.0 74.0 Q 122 73 120.0 70.0 Q 118 67 119.0 65.0 Q 120 63 120.5 65.0 Q 121 67 124.0 65.0 Q 127 63 128.5 64.5 Q 130 66 125.5 72.0 Q 121 78 114.5 80.5 Q 108 83 107.5 85.5 Q 107 88 115.0 92.0 Q 123 96 129.0 106.0 Q 135 116 137.5 115.0 Q 140 114 140.5 110.5 Q 141 107 144.5 102.0 Q 148 97 157.0 92.0 Q 166 87 167.0 89.0 Q 168 91 166.5 88.5 Q 165 86 165.5 83.0 Q 166 80 168.0 81.0 Q 170 82 166.0 82.5 Q 162 83 156.5 80.5 Q 151 78 145.5 70.5 Q 140 63 141.5 60.0 Q 143 57 143.0 59.0 Q 143 61 138.0 59.0 Q 133 57 132.0 61.0 Q 131 65 129.0 66.0 Q 127 67 123.5 62.0 Q 120 57 119.0 58.5 Q 118 60 119.5 51.0 Q 121 42 119.0 42.5 Q 117 43 117.5 47.5 Q 118 52 122.0 51.5 Q 126 51 127.0 44.5 Q 128 38 127.5 45.0 Q 127 52 130.5 52.0 Q 134 52 135.0 50.5 Q 136 49 135.5 51.5 Q 135 54 138.5 53.0 Q 142 52 142.5 50.5 Q 143 49 143.0 51.0 Q 143 53 147.0 53.0 Q 151 53 151.5 48.5 Q 152 44 155.0 44.0 Q 158 44 158.5 42.5 Q 159 41 159.0 47.0 Q 159 53 164.0 51.5 Q 169 50 167.5 51.0 Q 166 52 167.0 58.0 Q 168 64 166.5 61.0 Q 165 58 158.0 57.0 Q 151 56 150.5 60.5 Q 150 65 154.5 66.0 Q 159 67 159.5 63.5 Q 160 60 164.0 63.0 Q 168 66 167.0 70.5 Q 166 75 171.0 74.5 Q 176 74 176.0 78.0 Q 176 82 174.5 82.0 Q 173 82 174.0 94.0 Q 175 106 174.0 105.5 Q 173 105 173.5 109.0 Q 174 113 172.0 116.5 Q 170 120 180.5 120.0 Q 191 120 190.0 121.5 Q 189 123 193.5 121.0 Q 198 119 198.0 125.0 Q 198 131 197.5 129.5 Q 197 128 200.0 129.0 Q 203 130 204.5 128.5 Q 206 127 206.0 123.0 Q 206 119 207.0 124.0 Q 208 129 206.5 129.5 Q 205 130 209.5 129.0 Q 214 128 212.5 129.0 Q 211 130 212.5 131.0 Q 214 132 214.0 135.5 Q 214 139 213.0 136.0 Q 212 133 213.5 132.0 Q 215 131 215.0 126.0 Q 215 121 213.5 120.0 Q 212 119 212.0 115.5 Q 212 112 213.5 112.0 Q 215 112 214.0 117.5 Q 213 123 217.0 123.0 Q 221 123 221.5 115.0 Q 222 107 220.5 106.0 Q 219 105 220.5 104.5 Q 222 104 222.5 100.5 Q 223 97 219.0 97.5 Q 215 98 214.5 96.5 Q 214 95 213.0 97.0 Q 212 99 213.5 102.5 Q 215 106 214.0 107.0 Q 213 108 213.0 106.0 Q 213 104 209.0 105.5 Q 205 107 204.5 102.0 Q 204 97 205.5 95.5 Q 207 94 207.0 96.0 Q 207 98 205.5 93.5 Q 204 89 205.0 87.5 Q 206 86 206.5 88.0 Q 207 90 209.5 90.0 Q 212 90 213.0 87.0 Q 214 84 212.5 82.5 Q 211 81 212.5 79.0 Q 214 77 212.5 75.5 Q 211 74 213.0 73.0 Q 215 72 214.5 81.5 Q 214 91 212.0 86.5 Q 210 82 207.0 81.0 Q 204 80 203.0 81.0 Q 202 82 203.5 83.0 Q 205 84 202.0 83.5 Q 199 83 198.5 81.5 Q 198 80 197.0 81.0 Q 196 82 197.5 84.5 Q 199 87 197.5 88.5 Q 196 90 197.5 89.5 Q 199 89 199.0 91.5 Q 199 94 197.5 96.5 Q 196 99 197.5 99.0 Q 199 99 198.0 96.5 Q 197 94 193.5 96.5 Q 190 99 186.0 98.5 Q 182 98 182.0 101.5 Q 182 105 190.5 105.0 Q 199 105 199.0 109.5 Q 199 114 194.5 114.5 Q 190 115 190.0 113.5 Q 190 112 197.5 113.5 Q 205 115 206.0 114.0 Q 207 113 198.0 104.5 Q 189 96 189.5 88.0 Q 190 80 186.5 80.0 Q 183 80 182.0 84.5 Q 181 89 185.0 89.0 Q 189 89 190.0 80.5 Q 191 72 189.0 73.0 Q 187 74 188.0 75.5 Q 189 77 186.5 75.0 Q 184 73 183.0 74.0 Q 182 75 182.5 70.5 Q 183 66 178.0 66.0 Q 173 66 175.0 62.0 Q 177 58 175.5 57.5 Q 174 57 173.5 58.0 Q 173 59 175.0 59.5 Q 177 60 179.5 58.5 Q 182 57 183.0 58.0 Q 184 59 182.5 59.5 Q 181 60 185.0 60.0 Q 189 60 189.5 58.0 Q 190 56 189.0 61.0 Q 188 66 189.0 67.0 Q 190 68 190.5 66.5 Q 191 65 194.5 64.5 Q 198 64 198.5 69.5 Q 199 75 202.5 72.0 Q 206 69 207.0 72.0 Q 208 75 204.0 74.0 Q 200 73 198.5 74.5 Q 197 76 196.0 74.5 Q 195 73 201.0 67.5 Q 207 62 205.5 61.0 Q 204 60 205.0 58.0 Q 206 56 205.5 61.5 Q 205 67 208.5 67.0 Q 212 67 213.0 62.0 Q 214 57 213.5 62.5 Q 213 68 216.0 71.0 Q 219 74 220.5 73.0 Q 222 72 222.0 76.0 Q 222 80 220.5 81.0 Q 219 82 221.0 82.5 Q 223 83 222.0 66.5 Q 221 50 218.0 50.0 Q 215 50 213.5 47.0 Q 212 44 213.5 43.0 Q 215 42 213.5 46.0 Q 212 50 213.0 51.5 Q 214 53 218.0 52.0 Q 222 51 222.5 44.5 Q 223 38 219.5 36.5 Q 216 35 219.5 33.5 Q 223 32 223.0 33.5 Q 223 35 223.0 31.5 Q 223 28 221.5 27.5 Q 220 27 221.5 25.5 Q 223 24 218.5 26.5 Q 214 29 203.0 28.5 Q 192 28 191.0 30.0 Q 190 32 191.5 33.5 Q 193 35 195.0 33.5 Q 197 32 198.5 33.5 Q 200 35 199.5 41.0 Q 199 47 196.0 49.0 Q 193 51 196.0 51.5 Q 199 52 197.0 47.5 Q 195 43 196.0 36.5 Q 197 30 198.5 28.0 Q 200 26 208.5 26.0 Q 217 26 214.5 24.0 Q 212 22 212.0 19.0 Q 212 16 213.5 16.5 Q 215 17 215.0 19.5 Q 215 22 218.5 20.0 Q 222 18 222.0 19.5 Q 222 21 222.0 18.0 Q 222 15 220.0 14.0 Q 218 13 219.5 11.0 Q 221 9 214.5 10.0 Q 208 11 206.5 13.5 Q 205 16 205.5 19.0 Q 206 22 205.0 20.0 Q 204 18 202.0 19.0 Q 200 20 195.0 18.0 Q 190 16 187.5 17.5 Q 185 19 184.5 14.5 Q 184 10 178.5 10.0 Q 173 10 173.0 15.0 Q 173 20 180.5 20.0 Q 188 20 189.0 24.0 Q 190 28 182.0 28.5 Q 174 29 174.0 27.0 Q 174 25 179.5 25.5 Q 185 26 183.5 29.0 Q 182 32 183.5 33.5 Q 185 35 178.5 35.0 Q 172 35 180.5 34.0 Q 189 33 189.5 36.0 Q 190 39 191.0 37.5 Q 192 36 192.0 39.5 Q 192 43 188.0 43.0 Q 184 43 183.0 47.5 Q 182 52 177.5 51.5 Q 173 51 174.0 46.0 Q 175 41 178.5 41.0 Q 182 41 186.5 45.5 Q 191 50 189.5 50.5 Q 188 51 193.5 55.0 Q 199 59 198.0 59.5 Q 197 60 202.0 55.5 Q 207 51 206.5 49.5 Q 206 48 205.0 49.5 Q 204 51 205.5 48.0 Q 207 45 205.5 42.5 Q 204 40 205.0 38.5 Q 206 37 204.0 36.0 Q 202 35 204.0 33.5 Q 206 32 207.0 33.5 Q 208 35 211.5 34.5 Q 215 34 214.5 35.5 Q 214 37 210.5 36.5 Q 207 36 207.0 38.0 Q 207 40 203.0 32.5 Q 199 25 199.5 18.0 Q 200 11 199.0 10.0 Q 198 9 195.5 10.5 Q 193 12 191.5 10.5 Q 190 9 188.5 10.5 Q 187 12 192.0 12.5 Q 197 13 201.5 11.0 Q 206 9 205.5 11.0 Q 205 13 205.5 9.5 Q 206 6 204.0 4.5 Q 202 3 203.5 1.5 Q 205 0 206.0 2.5 Q 207 5 202.0 2.5 Q 197 0 190.0 0.0 Q 183 0 185.5 1.0 Q 188 2 183.5 3.5 Q 179 5 178.0 4.0 Q 177 3 172.0 8.5 Q 167 14 165.5 13.0 Q 164 12 161.5 13.5 Q 159 15 158.0 12.5 Q 157 10 162.0 9.5 Q 167 9 162.0 7.0 Q 157 5 157.0 3.5 Q 157 2 150.5 1.0 Q 144 0 146.0 2.5 Q 148 5 143.0 9.0 Q 138 13 138.0 11.5 Q 138 10 135.5 10.5 Q 133 11 134.5 12.0 Q 136 13 135.5 17.5 Q 135 22 135.5 20.0 Q 136 18 139.5 19.5 Q 143 21 144.0 20.0 Q 145 19 145.0 23.5 Q 145 28 144.0 29.0 Q 143 30 142.0 28.5 Q 141 27 142.0 32.5 Q 143 38 143.5 36.0 Q 144 34 147.5 33.0 Q 151 32 156.0 33.5 Q 161 35 157.0 35.5 Q 153 36 152.5 39.0 Q 152 42 151.0 38.5 Q 150 35 150.0 40.0 Q 150 45 146.0 43.5 Q 142 42 143.0 43.5 Q 144 45 141.5 52.5 Q 139 60 144.5 64.5 Q 150 69 150.5 72.0 Q 151 75 151.0 71.5 Q 151 68 155.5 69.5 Q 160 71 159.5 85.5 Q 159 100 158.5 98.0 Q 158 96 162.0 96.0 Q 166 96 166.5 97.5 Q 167 99 167.0 97.0 Q 167 95 171.0 96.5 Q 175 98 162.5 98.5 Q 150 99 151.0 106.0 Q 152 113 148.0 113.0 Q 144 113 146.0 114.5 Q 148 116 143.5 118.0 Q 139 120 136.5 118.5 Q 134 117 134.5 118.0 Q 135 119 129.0 123.5 Q 123 128 121.5 132.0 Q 120 136 128.0 136.5 Q 136 137 136.0 144.5 Q 136 152 134.5 152.5 Q 133 153 138.5 148.5 Q 144 144 154.0 143.5 Q 164 143 162.5 148.0 Q 161 153 162.5 153.0 Q 164 153 157.5 159.5 Q 151 166 162.5 163.5 Q 174 161 175.0 157.0 Q 176 153 174.0 154.0 Q 172 155 172.0 153.5 Q 172 152 178.0 153.0 Q 184 154 182.0 154.5 Q 180 155 181.5 158.0 Q 183 161 182.0 163.5 Q 181 166 180.5 163.5 Q 180 161 185.5 156.0 Q 191 151 191.5 152.5 Q 192 154 190.0 154.5 Q 188 155 190.0 157.5 Q 192 160 195.0 158.5 Q 198 157 198.0 160.0 Q 198 163 195.5 162.0 Q 193 161 196.0 157.0 Q 199 153 197.5 153.0 Q 196 153 199.0 152.0 Q 202 151 203.0 152.5 Q 204 154 204.5 152.0 Q 205 150 206.5 151.0 Q 208 152 206.5 153.5 Q 205 155 205.5 159.0 Q 206 163 201.0 154.5 Q 196 146 200.5 144.5 Q 205 143 206.5 143.5 Q 208 144 207.0 145.5 Q 206 147 210.5 146.5 Q 215 146 213.5 145.0 Q 212 144 213.5 142.5 Q 215 141 210.0 139.0 Q 205 137 201.5 136.5 Q 198 136 198.0 137.5 Q 198 139 193.5 137.5 Q 189 136 189.0 137.5 Q 189 139 200.5 144.5 Q 212 150 212.5 152.5 Q 213 155 214.5 154.0 Q 216 153 214.5 151.0 Q 213 149 217.0 152.0 Q 221 155 222.0 154.0 Q 223 153 221.5 149.5 Q 220 146 221.5 144.5 Q 223 143 221.5 147.0 Q 220 151 221.5 155.5 Q 223 160 218.0 159.0 Q 213 158 214.0 160.5 Q 215 163 213.5 163.0 Q 212 163 212.0 165.5 Q 212 168 210.0 168.0 Q 208 168 210.5 168.5 Q 213 169 208.5 167.5 Q 204 166 205.0 167.0 Q 206 168 214.5 153.0 Q 223 138 223.0 92.5 Q 223 47 194.0 41.5 Q 165 36 166.0 34.5 Q 167 33 169.0 33.5 Q 171 34 169.0 36.5 Q 167 39 166.0 32.5 Q 165 26 168.0 27.0 Q 171 28 169.5 28.5 Q 168 29 166.5 24.5 Q 165 20 166.5 19.5 Q 168 19 163.0 18.5 Q 158 18 158.5 19.5 Q 159 21 146.5 10.5 Q 134 0 115.0 1.0 Q 96 2 99.0 1.5 Q 102 1 104.5 2.5 Q 107 4 114.0 11.0 Q 121 18 121.0 22.0 Q 121 26 123.5 26.0 Q 126 26 126.0 21.5 Q 126 17 123.0 28.5 Q 120 40 104.5 31.0 Q 89 22 88.5 19.0 Q 88 16 86.5 17.5 Q 85 19 86.5 21.0 Q 88 23 84.5 20.5 Q 81 18 80.0 19.0 Q 79 20 80.0 20.5 Q 81 21 79.5 16.5 Q 78 12 79.0 10.5 Q 80 9 81.5 10.5 Q 83 12 85.5 10.5 Q 88 9 89.5 10.0 Q 91 11 86.0 12.0 Q 81 13 81.0 6.5 Q 81 0 84.0 0.0 Q 87 0 76.5 0.0 Q 66 0 49.5 11.5 Q 33 23 23.5 16.5 Q 14 10 43.0 33.5 Q 72 57 72.0 62.0 Q 72 67 72.5 61.5 Q 73 56 77.5 57.0 Q 82 58 73.0 65.5 Q 64 73 64.5 72.0 Q 65 71 73.0 77.5 Q 81 84 84.5 82.5 Q 88 81 87.5 89.5 Q 87 98 91.5 97.0 Q 96 96 96.5 101.0 Q 97 106 88.0 105.0 Q 79 104 79.5 106.0 Q 80 108 76.5 106.0 Q 73 104 73.0 105.5 Q 73 107 73.0 101.5 Q 73 96 77.5 96.0 Q 82 96 81.5 97.5 Q 81 99 88.5 95.0 Q 96 91 99.0 94.5 Q 102 98 103.0 97.0 Q 104 96 105.0 97.5 Q 106 99 106.0 97.5 Q 106 96 108.5 97.5 Q 111 99 112.0 98.0 Q 113 97 111.5 96.5 Q 110 96 111.5 95.0 Q 113 94 108.0 96.5 Q 103 99 104.5 102.5 Q 106 106 104.0 106.0 Q 102 106 103.0 110.5 Q 104 115 103.5 113.0 Q 103 111 108.0 112.0 Q 113 113 111.5 116.5 Q 110 120 112.0 120.5 Q 114 121 113.5 126.5 Q 113 132 112.5 130.0 Q 112 128 108.0 127.5 Q 104 127 104.0 129.5 Q 104 132 100.0 130.0 Q 96 128 96.0 129.5 Q 96 131 92.0 129.5 Q 88 128 84.0 128.0 Q 80 128 80.0 129.5 Q 80 131 79.5 126.0 Q 79 121 84.5 129.5 Q 90 138 85.0 141.5 Q 80 145 84.0 149.0 Q 88 153 96.0 148.5 Q 104 144 104.0 145.5 Q 104 147 109.0 147.0 Q 114 147 112.0 149.5 Q 110 152 111.0 152.5 Q 112 153 112.0 146.0 Q 112 139 107.5 130.0 Q 103 121 108.0 113.5 Q 113 106 112.0 105.5 Q 111 105 115.5 105.5 Q 120 106 119.5 102.0 Q 119 98 111.0 90.0 Q 103 82 103.5 81.0 Q 104 80 104.0 82.5 Q 104 85 100.0 83.0 Q 96 81 96.0 82.5 Q 96 84 48.0 95.0 L 0 106 Z" fill="rgb(1,1,1)" fill-opacity="0.85" />
<path d="M 0 0 Q 0 24 1.5 17.5 Q 3 11 2.0 5.5 Q 1 0 14.0 0.0 Q 27 0 26.0 2.5 Q 25 5 26.5 2.5 Q 28 0 46.0 0.0 Q 64 0 64.5 2.5 Q 65 5 65.5 2.5 Q 66 0 70.0 0.0 Q 74 0 73.5 2.5 Q 73 5 74.0 2.5 Q 75 0 92.5 0.0 Q 110 0 111.0 2.5 Q 112 5 111.5 2.5 Q 111 0 126.5 0.0 Q 142 0 142.5 2.5 Q 143 5 143.5 2.5 Q 144 0 175.5 0.0 Q 207 0 206.0 2.5 Q 205 5 206.5 2.5 Q 208 0 216.0 0.5 Q 224 1 224.0 112.5 Q 224 224 112.0 224.0 Q 0 224 0.0 124.5 Q 0 25 5.5 26.0 Q 11 27 10.0 31.5 Q 9 36 25.0 36.0 Q 41 36 42.0 31.5 Q 43 27 38.0 27.0 Q 33 27 32.5 19.0 Q 32 11 37.0 10.5 Q 42 10 42.0 11.5 Q 42 13 45.5 11.5 Q 49 10 49.0 11.5 Q 49 13 53.0 11.5 Q 57 10 57.0 19.5 Q 57 29 61.0 27.5 Q 65 26 80.5 26.0 Q 96 26 96.0 31.0 Q 96 36 100.5 31.5 Q 105 27 103.5 27.0 Q 102 27 103.5 23.5 Q 105 20 103.5 16.0 Q 102 12 107.0 11.0 Q 112 10 112.0 14.0 Q 112 18 115.5 18.0 Q 119 18 119.5 22.0 Q 120 26 124.0 26.5 Q 128 27 128.0 30.5 Q 128 34 124.0 35.0 Q 120 36 119.5 32.0 Q 119 28 114.5 27.5 Q 110 27 110.0 23.0 Q 110 19 102.0 15.0 Q 94 11 95.0 12.0 Q 96 13 96.5 8.5 Q 97 4 96.0 2.5 Q 95 1 99.0 3.0 Q 103 5 104.0 3.0 Q 105 1 111.5 2.5 Q 118 4 119.0 3.0 Q 120 2 119.5 7.5 Q 119 13 123.0 13.0 Q 127 13 127.0 8.0 Q 127 3 130.5 3.5 Q 134 4 135.0 2.5 Q 136 1 135.5 3.0 Q 135 5 139.0 9.0 Q 143 13 143.0 11.5 Q 143 10 147.0 11.5 Q 151 13 150.5 8.0 Q 150 3 154.0 3.5 Q 158 4 159.0 2.5 Q 160 1 159.5 7.0 Q 159 13 163.5 7.0 Q 168 1 171.5 5.5 Q 175 10 179.0 11.0 Q 183 12 183.0 15.0 Q 183 18 180.5 17.5 Q 178 17 177.0 18.5 Q 176 20 175.0 15.5 Q 174 11 178.5 6.0 Q 183 1 182.5 3.0 Q 182 5 186.0 3.5 Q 190 2 190.0 3.5 Q 190 5 189.5 3.0 Q 189 1 193.5 3.0 Q 198 5 201.0 3.0 Q 204 1 205.0 7.0 Q 206 13 202.0 13.0 Q 198 13 198.0 11.5 Q 198 10 193.5 10.5 Q 189 11 189.5 14.5 Q 190 18 194.0 19.0 Q 198 20 198.0 24.0 Q 198 28 194.5 27.5 Q 191 27 190.0 23.0 Q 189 19 185.5 23.5 Q 182 28 178.0 27.5 Q 174 27 175.0 36.5 Q 176 46 177.5 46.5 Q 179 47 178.5 45.5 Q 178 44 180.5 43.5 Q 183 43 181.0 46.5 Q 179 50 177.0 49.5 Q 175 49 175.0 46.0 Q 175 43 178.0 46.5 Q 181 50 189.5 42.0 Q 198 34 202.0 35.0 Q 206 36 209.5 31.0 Q 213 26 218.0 26.0 Q 223 26 223.5 29.5 Q 224 33 218.0 22.5 Q 212 12 213.5 8.0 Q 215 4 214.0 3.0 Q 213 2 218.5 1.0 Q 224 0 223.5 30.0 Q 223 60 194.0 72.5 Q 165 85 155.0 92.5 Q 145 100 141.0 107.5 Q 137 115 135.0 114.0 Q 133 113 130.5 107.0 Q 128 101 117.5 93.0 Q 107 85 114.0 81.5 Q 121 78 125.0 74.0 Q 129 70 132.0 63.5 Q 135 57 143.0 67.5 Q 151 78 157.5 81.0 Q 164 84 161.5 71.5 Q 159 59 155.0 60.0 Q 151 61 154.0 61.0 Q 157 61 155.5 61.0 Q 154 61 148.5 43.5 Q 143 26 127.5 30.0 Q 112 34 104.0 45.5 Q 96 57 94.5 60.5 Q 93 64 94.5 64.0 Q 96 64 96.0 66.0 Q 96 68 87.0 68.0 Q 78 68 73.0 70.5 Q 68 73 63.5 80.0 Q 59 87 59.0 117.5 Q 59 148 63.5 155.0 Q 68 162 73.5 164.5 Q 79 167 111.5 166.0 Q 144 165 148.0 162.0 Q 152 159 155.0 153.5 Q 158 148 158.0 132.0 Q 158 116 156.0 115.5 Q 154 115 150.5 118.0 Q 147 121 147.0 134.0 Q 147 147 142.5 151.5 Q 138 156 106.5 155.0 Q 75 154 72.5 150.5 Q 70 147 70.0 117.5 Q 70 88 74.0 83.5 Q 78 79 88.5 79.0 Q 99 79 102.0 74.0 Q 105 69 96.5 66.5 Q 88 64 88.5 61.0 Q 89 58 92.0 58.0 Q 95 58 77.5 58.0 Q 60 58 58.5 59.0 Q 57 60 58.0 63.0 Q 59 66 60.0 64.5 Q 61 63 62.0 64.5 Q 63 66 64.0 63.0 Q 65 60 65.5 62.5 Q 66 65 61.5 64.0 Q 57 63 61.5 57.0 Q 66 51 62.0 43.0 Q 58 35 53.0 31.0 Q 48 27 56.5 18.5 Q 65 10 65.0 11.5 Q 65 13 69.0 11.5 Q 73 10 73.0 11.5 Q 73 13 76.0 7.0 Q 79 1 83.5 1.5 Q 88 2 64.5 3.5 Q 41 5 40.5 3.0 Q 40 1 37.5 1.0 Q 35 1 34.0 3.0 Q 33 5 34.0 4.0 Q 35 3 33.5 2.0 Q 32 1 28.5 7.0 Q 25 13 21.0 13.0 Q 17 13 16.5 7.0 Q 16 1 16.0 2.5 Q 16 4 17.5 2.5 Q 19 1 15.0 1.0 Q 11 1 9.5 2.0 Q 8 3 9.5 3.0 Q 11 3 10.5 8.0 Q 10 13 6.5 7.0 Q 3 1 11.0 14.0 Q 19 27 17.5 27.0 Q 16 27 8.5 35.5 Q 1 44 13.0 51.5 Q 25 59 29.0 58.5 Q 33 58 33.5 60.5 Q 34 63 30.5 65.0 Q 27 67 26.5 63.5 Q 26 60 13.5 71.5 Q 1 83 1.5 110.0 Q 2 137 112.5 135.0 Q 223 133 223.5 150.5 L 224 168 Z" fill="rgb(11,11,11)" fill-opacity="0.85" />
<path d="M 136 60 Q 142 72 152.0 79.0 Q 162 86 152.0 93.0 Q 142 100 139.5 106.0 Q 137 112 129.5 102.0 Q 122 92 116.0 89.5 Q 110 87 120.0 79.5 Q 130 72 132.5 66.5 Q 135 61 118.0 66.0 Q 101 71 100.0 73.5 Q 99 76 89.0 76.0 Q 79 76 74.5 79.0 Q 70 82 68.5 85.0 Q 67 88 67.0 117.0 Q 67 146 68.0 148.5 Q 69 151 74.5 155.0 Q 80 159 110.0 158.5 Q 140 158 144.5 153.5 Q 149 149 149.5 135.0 Q 150 121 152.5 119.5 Q 155 118 154.5 134.5 Q 154 151 150.0 156.0 Q 146 161 142.5 162.5 Q 139 164 108.5 164.0 Q 78 164 74.5 162.5 Q 71 161 67.0 156.5 Q 63 152 63.0 117.5 Q 63 83 65.5 79.5 Q 68 76 72.5 73.5 Q 77 71 88.5 71.0 L 100 71 Z" fill="rgb(255,255,255)" fill-opacity="0.85" />
</svg>